<svg xmlns="http://www.w3.org/2000/svg" width="494.73" height="1659.828" viewBox="0 0 494.73 1659.828"><defs><style>.a{fill:rgba(154,140,161,0.15);}</style></defs><g transform="translate(1502.276 -731.879) rotate(90)"><g transform="translate(821.879 1314.846)"><path class="a" d="M2064.645,1388.577h-23.522v-47.046h23.522a46.67,46.67,0,1,0,0-93.34H741.879v-47.044H2064.645a93.715,93.715,0,0,1,0,187.43Z" transform="translate(-821.879 -1201.147)"/></g><g transform="translate(821.879 1007.546)"><path class="a" d="M2064.645,1194.976H731.879V1147.93H2064.645a46.669,46.669,0,1,0,0-93.339h-23.522v-47.046h23.522a93.715,93.715,0,0,1,0,187.43Z" transform="translate(-821.879 -1007.546)"/></g><g transform="translate(821.879 1231.515)"><path class="a" d="M2297.99,1336.079h-23.522v-47.045h23.522a46.671,46.671,0,0,0,0-93.342H741.879v-47.044H2297.99a93.716,93.716,0,1,1,0,187.432Z" transform="translate(-821.879 -1148.648)"/></g></g></svg>