<svg xmlns="http://www.w3.org/2000/svg" width="131.359" height="117.089" viewBox="0 0 131.359 117.089"><defs><style>.a{fill:#fff;}.b{fill:#220c2c;}</style></defs><g transform="translate(0 0)"><g transform="translate(0 0)"><path class="a" d="M2010.885,812.348H1946.6a10.037,10.037,0,0,0-10.038,10.037v33.648A10.038,10.038,0,0,0,1946.6,866.07h44.015l13.844,12.358V866.07h6.426a10.038,10.038,0,0,0,10.037-10.037V822.385A10.037,10.037,0,0,0,2010.885,812.348Z" transform="translate(-1935.508 -811.293)"/><path class="b" d="M2004.069,879.337l-15.3-13.658h-43.613a11.1,11.1,0,0,1-11.092-11.092V820.939a11.1,11.1,0,0,1,11.092-11.092h64.285a11.1,11.1,0,0,1,11.092,11.092v33.648a11.1,11.1,0,0,1-11.092,11.092h-5.371Zm-58.914-67.381a8.993,8.993,0,0,0-8.982,8.983v33.648a8.993,8.993,0,0,0,8.982,8.983h44.417l12.388,11.057V863.57h7.48a8.993,8.993,0,0,0,8.983-8.983V820.939a8.993,8.993,0,0,0-8.983-8.983Z" transform="translate(-1934.063 -809.847)"/></g><g transform="translate(75.752 71.773)"><path class="a" d="M2122.5,982.488h40.768a6.365,6.365,0,0,1,6.365,6.365v21.338a6.365,6.365,0,0,1-6.365,6.365h-27.913l-8.78,7.837v-7.837H2122.5a6.365,6.365,0,0,1-6.365-6.365V988.853A6.365,6.365,0,0,1,2122.5,982.488Z" transform="translate(-2115.08 -981.433)"/><path class="b" d="M2124.076,1025.3v-9.138h-3.02a7.428,7.428,0,0,1-7.42-7.42V987.408a7.428,7.428,0,0,1,7.42-7.42h40.767a7.429,7.429,0,0,1,7.42,7.42v21.338a7.428,7.428,0,0,1-7.42,7.42h-27.511Zm-3.02-43.206a5.317,5.317,0,0,0-5.311,5.311v21.338a5.317,5.317,0,0,0,5.311,5.311h5.129v6.536l7.323-6.536h28.315a5.317,5.317,0,0,0,5.31-5.311V987.408a5.316,5.316,0,0,0-5.31-5.311Z" transform="translate(-2113.635 -979.988)"/></g></g></svg>