<svg xmlns="http://www.w3.org/2000/svg" xmlns:xlink="http://www.w3.org/1999/xlink" width="465.312" height="337" viewBox="0 0 465.312 337"><defs><style>.a{fill:#543961;}.b{fill:url(#a);}</style><linearGradient id="a" x1="0.93" y1="1" x2="0.5" y2="1" gradientUnits="objectBoundingBox"><stop offset="0" stop-color="#351146" stop-opacity="0"/><stop offset="1" stop-color="#351146"/></linearGradient></defs><g transform="translate(-763 -1284)"><g transform="translate(-501.021 317.048)"><g transform="translate(1336.631 1167.857)"><path class="a" d="M1558.712,1298.925h-12.271v-24.542h12.271a24.347,24.347,0,1,0,0-48.694H1336.631v-24.542h222.082a48.889,48.889,0,0,1,0,97.778Z" transform="translate(-1336.631 -1201.147)"/></g><g transform="translate(1336.631 1007.546)"><path class="a" d="M1558.712,1105.324H1336.631v-24.543h222.082a24.346,24.346,0,1,0,0-48.693h-12.271v-24.542h12.271a48.889,48.889,0,0,1,0,97.778Z" transform="translate(-1336.631 -1007.546)"/></g><g transform="translate(1336.631 1124.386)"><path class="a" d="M1680.443,1246.427h-12.271v-24.542h12.271a24.347,24.347,0,0,0,0-48.695H1336.631v-24.542h343.813a48.889,48.889,0,1,1,0,97.779Z" transform="translate(-1336.631 -1148.648)"/></g></g><rect class="b" width="240" height="337" transform="translate(763 1284)"/></g></svg>