<svg xmlns="http://www.w3.org/2000/svg" width="114.464" height="101.429" viewBox="0 0 114.464 101.429"><defs><style>.a{fill:#fff;}</style></defs><g transform="translate(0)"><g transform="translate(5.812 0)"><rect class="a" width="12.345" height="99.319" transform="translate(1.054 1.055)"/><path d="M1443.8,337.695h-14.453V236.266H1443.8Zm-12.344-2.109h10.235v-97.21h-10.235Z" transform="translate(-1429.347 -236.266)"/></g><g transform="translate(0 12.595)"><rect class="a" width="23.966" height="33.571" transform="translate(1.055 1.055)"/><path d="M1441.647,301.8h-26.076V266.124h26.076ZM1417.68,299.7h21.858V268.233H1417.68Z" transform="translate(-1415.571 -266.124)"/><g transform="translate(5.274 8.369)"><line class="a" x2="15.529" transform="translate(0 1.055)"/><rect width="15.529" height="2.109"/><g transform="translate(0 8.417)"><line class="a" x2="15.529" transform="translate(0 1.055)"/><rect width="15.529" height="2.109"/></g><g transform="translate(0 16.833)"><line class="a" x2="15.529" transform="translate(0 1.055)"/><rect width="15.529" height="2.109"/></g></g></g><g transform="translate(47.896 0)"><rect class="a" width="12.345" height="99.319" transform="translate(1.055 1.055)"/><path d="M1543.562,337.695h-14.454V236.266h14.454Zm-12.345-2.109h10.236v-97.21h-10.236Z" transform="translate(-1529.108 -236.266)"/></g><g transform="translate(42.085 53.917)"><rect class="a" width="23.966" height="33.571" transform="translate(1.055 1.054)"/><path d="M1541.409,399.757h-26.075v-35.68h26.075Zm-23.966-2.109H1539.3V366.186h-21.857Z" transform="translate(-1515.334 -364.077)"/><g transform="translate(5.273 8.368)"><line class="a" x2="15.529" transform="translate(0 1.055)"/><rect width="15.529" height="2.109" transform="translate(0)"/><g transform="translate(0 8.417)"><line class="a" x2="15.529" transform="translate(0 1.055)"/><rect width="15.529" height="2.109" transform="translate(0)"/></g><g transform="translate(0 16.833)"><line class="a" x2="15.529" transform="translate(0 1.055)"/><rect width="15.529" height="2.109" transform="translate(0)"/></g></g></g><g transform="translate(94.199 0)"><rect class="a" width="12.345" height="99.319" transform="translate(1.055 1.055)"/><path d="M1653.325,337.695h-14.454V236.266h14.454Zm-12.345-2.109h10.236v-97.21H1640.98Z" transform="translate(-1638.871 -236.266)"/></g><g transform="translate(88.389 29.381)"><rect class="a" width="23.966" height="33.571" transform="translate(1.055 1.055)"/><path d="M1651.172,341.6H1625.1v-35.68h26.075Zm-23.966-2.109h21.857V308.024h-21.857Z" transform="translate(-1625.097 -305.915)"/><g transform="translate(5.273 8.368)"><line class="a" x2="15.529" transform="translate(0 1.055)"/><rect width="15.529" height="2.109"/><g transform="translate(0 8.417)"><line class="a" x2="15.529" transform="translate(0 1.055)"/><rect width="15.529" height="2.109"/></g><g transform="translate(0 16.834)"><line class="a" x2="15.529" transform="translate(0 1.055)"/><rect width="15.529" height="2.109"/></g></g></g></g></svg>