<svg xmlns="http://www.w3.org/2000/svg" width="122.497" height="108.386" viewBox="0 0 122.497 108.386"><defs><style>.a{fill:#fff;}.b{fill:#220c2c;}</style></defs><g transform="translate(0)"><g transform="translate(1.681 0.817)"><path class="a" d="M1529.153,844.364c-2.272-.523-4.643-1.048-6.909-.5s-4.372,2.516-4.245,4.844a23.841,23.841,0,0,1-19.088-3.572c-2.788-1.952-5.206-4.539-8.381-5.768a19.2,19.2,0,0,0-5.813-1.041c-18.776-1.119-37.1,5.52-54.378,12.947-2.944,1.265-6.057,2.709-7.73,5.443a3.246,3.246,0,0,0,3.3,5.315c1.387-.13,2.722-.636,4.112-.726a1.272,1.272,0,0,1,1.122.334c.3.388.107.942-.069,1.4a8.255,8.255,0,0,0-.5,5.047,4.568,4.568,0,0,0,3.474,3.418,7,7,0,0,0,2.973-.388,83.09,83.09,0,0,0,9.085-3.2c.937,1.282.381,3.106.828,4.63.812,2.768,4.47,3.485,7.3,2.93,6.187-1.213,11.094-5.686,16.249-9.02a4.955,4.955,0,0,1,2.429-1.01c1.263-.04,2.041.858,3.038,1.439a3.278,3.278,0,0,1,.81.632c.684.745,1.371,1.478,2.114,2.165a29.711,29.711,0,0,0,4.831,3.63c.495.3,1.02.55,1.511.853a5,5,0,0,0,1.21.631,29.245,29.245,0,0,0,3.655.913,9.66,9.66,0,0,0,2.265.282,5.576,5.576,0,0,1,1.292.137,27.364,27.364,0,0,0,3.074.334,27.974,27.974,0,0,0,6.166-.367,27.5,27.5,0,0,0,7.455-2.4,2.623,2.623,0,0,1,1.476-.4.914.914,0,0,1,.789.955,6.933,6.933,0,0,0,.039,1.594,4.262,4.262,0,0,0,1.461,2.789,6.631,6.631,0,0,0,2.724,1.047l17.231,3.824a48.74,48.74,0,0,0,1.654-4.626q.779-2.365,1.437-4.767a98.284,98.284,0,0,0,3.279-19.547q.162-2.484.2-4.975c.013-.94.05-2.043-.845-2.608a5.277,5.277,0,0,0-1.665-.545l-2.556-.589-5.146-1.186Z" transform="translate(-1421.842 -838.2)"/></g><g transform="translate(0 0)"><path class="b" d="M1423.515,862.97a5.667,5.667,0,0,1-5.176-2.857,5.539,5.539,0,0,1,.6-5.5,12.042,12.042,0,0,1,3.854-3.347,80.677,80.677,0,0,1,13.846-6.223l14.531-5.456c.2-.074.391-.156.581-.236a8.972,8.972,0,0,1,1.352-.486,46.757,46.757,0,0,1,7.868-1.065l16.891-1.309c3.789-.295,8.5-.659,12.429,1.509a21.667,21.667,0,0,1,4.346,3.468c.72.685,1.4,1.332,2.131,1.926a18.2,18.2,0,0,0,17.988,2.621l.808,1.948a20.366,20.366,0,0,1-20.127-2.933c-.793-.646-1.536-1.351-2.254-2.034a19.759,19.759,0,0,0-3.913-3.15c-3.371-1.862-7.737-1.524-11.246-1.253l-16.873,1.309a45.29,45.29,0,0,0-7.533,1.008,7.349,7.349,0,0,0-1.045.384c-.216.092-.435.184-.662.269l-14.532,5.456a78.992,78.992,0,0,0-13.489,6.049,10.038,10.038,0,0,0-3.2,2.725,3.5,3.5,0,0,0-.462,3.387,3.7,3.7,0,0,0,3.367,1.684,45.156,45.156,0,0,0,5.482-1.1l.248-.056a18.9,18.9,0,0,0,2.885-.977c.444-.177.886-.353,1.327-.513,2.617-.948,5.8-2.108,8.982-3.266,3.083-1.123,6.158-2.242,8.7-3.163l.718,1.983c-2.537.92-5.611,2.039-8.693,3.161-3.179,1.158-6.367,2.318-8.984,3.267-.421.152-.843.32-1.267.489a20.8,20.8,0,0,1-3.214,1.077l-.228.052a40.683,40.683,0,0,1-5.917,1.152Z" transform="translate(-1417.859 -836.263)"/></g><g transform="translate(32.114 10.299)"><path class="b" d="M1539.946,890.943c-6.767,0-13.576-2.156-18.381-6.363-.5-.44-.99-.9-1.46-1.345a24.027,24.027,0,0,0-2.885-2.458c-2.547-1.739-5.7-2.411-8.743-3.061l-8.208-1.752a10.261,10.261,0,0,1-3.907-1.433,5.789,5.789,0,0,1-2.377-4.885,8.468,8.468,0,0,1,3.39-6.747c3.478-2.484,8.005-2.409,11.974-2.008a92.44,92.44,0,0,1,25.136,6.178l-.785,1.957a90.329,90.329,0,0,0-24.563-6.037c-3.579-.361-7.63-.451-10.536,1.625a6.387,6.387,0,0,0-2.507,5.026,3.807,3.807,0,0,0,1.483,3.167,8.526,8.526,0,0,0,3.131,1.094l8.209,1.752c3.094.661,6.6,1.41,9.491,3.383a25.967,25.967,0,0,1,3.145,2.667c.457.432.929.878,1.4,1.292,8.159,7.145,22.587,7.881,31.507,1.608l1.214,1.725A27.509,27.509,0,0,1,1539.946,890.943Z" transform="translate(-1493.985 -860.676)"/></g><g transform="translate(8.875 23.138)"><path class="b" d="M1444.589,904.42a5.66,5.66,0,0,1-3.292-.968,6.074,6.074,0,0,1-2.343-5.791,12.946,12.946,0,0,1,2.856-6.148l1.568,1.411a10.891,10.891,0,0,0-2.332,5.008,4.009,4.009,0,0,0,1.45,3.785c1.834,1.267,4.647.239,6.6-.645a109.072,109.072,0,0,0,17.521-9.96l1.208,1.73A111.25,111.25,0,0,1,1449.967,903,13.663,13.663,0,0,1,1444.589,904.42Z" transform="translate(-1438.898 -891.113)"/></g><g transform="translate(25.95 27.38)"><path class="b" d="M1484.66,913.145h-.073a5.282,5.282,0,0,1-4.383-2.127c-1.611-2.373-.692-6.665,1.142-8.637l1.544,1.437c-1.357,1.459-1.859,4.664-.942,6.016a3.238,3.238,0,0,0,2.66,1.2,10.207,10.207,0,0,0,3.553-.82,62.569,62.569,0,0,0,16.424-9.048l1.283,1.674a64.679,64.679,0,0,1-16.976,9.353A12.38,12.38,0,0,1,1484.66,913.145Z" transform="translate(-1479.373 -901.167)"/></g><g transform="translate(91.12 5.006)"><path class="b" d="M1656.63,890.583c-2.459-.442-5.8-1.168-9.036-1.87s-6.549-1.422-8.975-1.858c-1.066-.192-3.9-.7-4.6-2.985a5.25,5.25,0,0,1,.042-2.621l2.876-14.256c.179-.891.367-1.78.555-2.67.419-1.987.853-4.043,1.183-6.064.09-.546.164-1.1.24-1.648a17.212,17.212,0,0,1,1.838-6.609,4.086,4.086,0,0,1,.965-1.187,4.5,4.5,0,0,1,3.7-.532c.8.133,3.752.823,7.492,1.7,4.7,1.1,10.549,2.466,12.336,2.756l-.338,2.082c-1.858-.3-7.5-1.621-12.478-2.784-3.409-.8-6.629-1.549-7.359-1.671a2.938,2.938,0,0,0-2.041.106,2.249,2.249,0,0,0-.452.6A15.406,15.406,0,0,0,1641,856.9c-.078.569-.156,1.138-.248,1.7-.338,2.069-.777,4.148-1.2,6.159-.187.883-.373,1.767-.552,2.651l-2.875,14.256a3.563,3.563,0,0,0-.1,1.58c.294.949,1.832,1.33,2.963,1.533,2.463.443,5.812,1.17,9.05,1.873,3.215.7,6.539,1.42,8.961,1.855Z" transform="translate(-1633.861 -848.13)"/></g><g transform="translate(18.514 77.661)"><path class="a" d="M1523.64,1039.142h-58.051l7.217-16.281h43.617Z" transform="translate(-1463.968 -1021.807)"/><path class="b" d="M1523.039,1038.752h-61.293l8.152-18.391h44.99Zm-58.051-2.109H1519.8l-6.281-14.172H1471.27Z" transform="translate(-1461.746 -1020.361)"/></g><g transform="translate(34.061 74.397)"><path class="a" d="M1529.19,1024.984c0,1.009-6.288,1.827-14.045,1.827s-14.045-.818-14.045-1.827v-8.034c0-1.009,6.288-1.827,14.045-1.827s14.045.818,14.045,1.827Z" transform="translate(-1500.046 -1014.069)"/><path class="b" d="M1513.7,1026.42a82.229,82.229,0,0,1-10.067-.544c-3.668-.477-5.032-1.111-5.032-2.338V1015.5c0-1.227,1.364-1.86,5.032-2.337a93.394,93.394,0,0,1,20.135,0c3.668.477,5.032,1.111,5.032,2.337v8.034c0,1.227-1.364,1.86-5.032,2.338A82.244,82.244,0,0,1,1513.7,1026.42Zm-12.99-3.3c1.12.468,5.524,1.188,12.99,1.188s11.87-.72,12.99-1.188v-7.2c-1.121-.468-5.525-1.188-12.99-1.188s-11.87.72-12.99,1.188Z" transform="translate(-1498.601 -1012.623)"/><path class="b" d="M1513.7,1018.386a82.2,82.2,0,0,1-10.067-.544c-3.668-.477-5.032-1.111-5.032-2.338s1.364-1.86,5.032-2.337a93.394,93.394,0,0,1,20.135,0c3.668.477,5.032,1.111,5.032,2.337s-1.364,1.86-5.032,2.338A82.219,82.219,0,0,1,1513.7,1018.386Zm-11.366-2.882a84,84,0,0,0,22.731,0,84.015,84.015,0,0,0-22.731,0Z" transform="translate(-1498.601 -1012.623)"/></g><g transform="translate(26.508 58.876)"><path class="a" d="M1526.392,993.492c0,1.552-9.669,2.81-21.6,2.81s-21.6-1.258-21.6-2.81V981.139c0-1.552,9.67-2.81,21.6-2.81s21.6,1.258,21.6,2.81Z" transform="translate(-1482.141 -977.275)"/><path class="b" d="M1503.348,995.911a125.958,125.958,0,0,1-15.408-.831c-6.013-.782-7.245-1.778-7.245-3.033V979.693c0-1.255,1.232-2.251,7.245-3.033a143.155,143.155,0,0,1,30.816,0c6.012.782,7.244,1.778,7.244,3.033v12.354c0,1.255-1.232,2.251-7.244,3.033A125.966,125.966,0,0,1,1503.348,995.911Zm-20.544-4.145c1.361.885,8.931,2.036,20.544,2.036s19.182-1.151,20.543-2.036V979.974c-1.362-.885-8.931-2.036-20.543-2.036s-19.182,1.151-20.544,2.036Z" transform="translate(-1480.695 -975.829)"/><path class="b" d="M1503.348,983.557a125.885,125.885,0,0,1-15.408-.832c-6.013-.782-7.245-1.777-7.245-3.032s1.232-2.251,7.245-3.033a143.155,143.155,0,0,1,30.816,0c6.012.782,7.244,1.778,7.244,3.033s-1.232,2.25-7.244,3.032A125.885,125.885,0,0,1,1503.348,983.557Zm-19.925-3.864c2.35.829,9.513,1.754,19.925,1.754s17.575-.926,19.925-1.754c-2.35-.829-9.512-1.755-19.925-1.755S1485.772,978.864,1483.423,979.693Z" transform="translate(-1480.695 -975.829)"/></g><g transform="translate(18.909 93.942)"><path class="a" d="M1522.191,1073.79h-54.732l-1.87-12.334h58.051Z" transform="translate(-1464.363 -1060.401)"/><path class="b" d="M1521.448,1073.4h-56.576l-2.19-14.443h60.463Zm-54.763-2.109h52.887l1.2-10.225h-55.639Z" transform="translate(-1462.682 -1058.956)"/></g></g></svg>