<svg xmlns="http://www.w3.org/2000/svg" width="167.915" height="97.962" viewBox="0 0 167.915 97.962"><defs><style>.a{fill:#fff;}.b{fill:#220c2c;}</style></defs><g transform="translate(0)"><g transform="translate(0.5 0.606)"><path class="a" d="M180.924,297.424c1.768-.1,3.264,1.179,4.7,2.21a41.351,41.351,0,0,0,7.225,3.845l16.223,7.3a2.125,2.125,0,0,0,1.466.268c.826-.262,1-1.347,1.574-2a2.5,2.5,0,0,1,2.868-.406,6.508,6.508,0,0,1,2.278,2.063,38.479,38.479,0,0,1,2.565,3.725,12.763,12.763,0,0,1,1.291,2.372,5.9,5.9,0,0,0,.428,1.228c.685,1.161,1.358,2.316,1.94,3.534a2.109,2.109,0,0,1,.242.731,2.182,2.182,0,0,1-.351,1.145c-.479.912-1.055,1.8-1.456,2.748a1.613,1.613,0,0,0-.149.51,2.907,2.907,0,0,0,.19.912,3.9,3.9,0,0,0,1.37,2.17,8.984,8.984,0,0,0,3.006,1.366,4.576,4.576,0,0,0,1.169.243,4.747,4.747,0,0,0,2.579-.989l2.71-1.716a14.666,14.666,0,0,1-.945,3.479,4.887,4.887,0,0,0-.163,2.73,3.2,3.2,0,0,0,1.441,2.044c1.633.68,3.273,1.116,4.973.345a3.869,3.869,0,0,1,2.087-.661c1.012.162,1.512,1.366,1.474,2.391a27.2,27.2,0,0,0-.337,3.05,3.612,3.612,0,0,0,5.044,2.765c.858-.459,2.124-1.178,2.561-.308a1.874,1.874,0,0,1,.04,1.019,4.225,4.225,0,0,0,3.154,4.127,8.141,8.141,0,0,0,5.476-.647,7.76,7.76,0,0,1,2.42-.82,2,2,0,0,1,2.09,1.144l-1.085-.167a19.077,19.077,0,0,0,11.152,3.108c2.134-.184,4.623-1.185,4.942-3.3.108-.715.024-1.621.658-1.969a1.941,1.941,0,0,1,.945-.135,6.1,6.1,0,0,0,5.45-3.583,9.858,9.858,0,0,1,.769-1.719c1-1.452,3.054-1.577,4.629-2.367a5.7,5.7,0,0,0,3.014-5.7c-.114-.85-.407-1.791.062-2.51a2.182,2.182,0,0,1,2.4-.606,19.664,19.664,0,0,0,2.521.8c1.727.218,3.311-.977,4.461-2.284,1.993-2.266,3.32-5.729,1.655-8.247-.537-.813-1.39-1.725-.96-2.6a2.148,2.148,0,0,1,.98-.831q3.976-2.17,7.954-4.335a.963.963,0,0,1,.841-.159c.21.1.313.332.438.527,1,1.563,2.985.449,4.224-.112q3-1.355,5.95-2.8,5.906-2.9,11.624-6.157t11.218-6.869l.494-.325c-3.546-4.558-14.981-29.988-17.956-37.777-.212-.556-.5-1.176-1.075-1.338a2.047,2.047,0,0,0-1.653.586c-7.909,5.788-18.016,7.692-26.459,12.668-2.874,1.693-5.751,4.071-6.275,7.365-.129.81-.3,1.873-1.115,1.991a1.78,1.78,0,0,1-1.083-.338,21.943,21.943,0,0,0-16.025-2.1c-2.648.68-5.183,1.864-7.9,2.139a8.008,8.008,0,0,0-9.29-4.616,14.888,14.888,0,0,0-6.073.448c-.83.2-1.622.4-2.462.522a10.007,10.007,0,0,0-2.4,1.084,30.383,30.383,0,0,1-12.19,2.754,17.074,17.074,0,0,1-3.611-.221.853.853,0,0,1-.442-.181.669.669,0,0,1-.152-.252,2.411,2.411,0,0,1,.275-1.886,6.161,6.161,0,0,0,.813-1.916,5.73,5.73,0,0,0-.238-1.772c-.3-1.536-1.636-2.127-2.967-2.814l-8.261-4.263c-5.893-3.041-11.87-6.142-16.7-10.689C194,268.725,186.79,283.2,180.924,297.424Z" transform="translate(-180.924 -256.404)"/></g><g transform="translate(0 0)"><g transform="translate(119.504 55.744)"><path class="b" d="M463.818,393.478c-.289,0-.554-.005-.791-.013l.072-2.108c2.5.09,8.612-.159,11.32-4.245l1.758,1.165C473.154,392.838,467.018,393.478,463.818,393.478Z" transform="translate(-463.027 -387.111)"/></g><g transform="translate(61.98 20.248)"><path class="b" d="M361.6,326.416c-1.268-.86-5.686-2.154-21.022-1.147l-.118.008c-3.481.227-7.456.294-10.566-1.829a7.719,7.719,0,0,1-3.227-5.953,5.256,5.256,0,0,1,1.937-4.45,9.385,9.385,0,0,1,4.591-1.551l.267-.039a49.256,49.256,0,0,0,12.7-3.711c.893-.4,1.8-.834,2.683-1.256,3.252-1.56,6.615-3.174,10.329-3.47,4.526-.362,9.328,1.3,13.972,2.915,2.147.744,4.175,1.448,6.108,1.93l-.51,2.047c-2.024-.5-4.1-1.223-6.289-1.984-4.438-1.539-9.024-3.131-13.112-2.8-3.324.265-6.366,1.724-9.585,3.269-.893.429-1.817.872-2.737,1.282a51.365,51.365,0,0,1-13.245,3.869l-.27.041a7.593,7.593,0,0,0-3.6,1.124,3.2,3.2,0,0,0-1.131,2.72,5.623,5.623,0,0,0,2.308,4.281c2.556,1.744,5.965,1.681,9.239,1.466l.118-.008c12.177-.8,19.694-.291,22.344,1.508Z" transform="translate(-326.665 -302.967)"/></g><g transform="translate(110.509 0.473)"><path class="b" d="M466.071,315.506a3.605,3.605,0,0,1-1.176-.194,5.708,5.708,0,0,1-2.838-2.841L441.7,277.308l.266-.8a2.778,2.778,0,0,1,.76-1.371c.094-.1.215-.238.377-.426a19.962,19.962,0,0,1,5.054-3.884,193.358,193.358,0,0,1,30.2-14.734l.756,1.969a191.266,191.266,0,0,0-29.868,14.572,18,18,0,0,0-4.542,3.452c-.176.2-.309.351-.411.465-.076.083-.162.178-.181.207s-.06.163-.11.316l19.879,34.343c.5.869,1.012,1.669,1.695,1.9.8.272,1.824-.221,2.8-.751,9.961-5.387,19.935-11.07,29.645-16.889l1.085,1.809c-9.737,5.835-19.738,11.533-29.726,16.936A7.2,7.2,0,0,1,466.071,315.506Z" transform="translate(-441.704 -256.089)"/></g><g transform="translate(85.369 41.071)"><path class="b" d="M413.866,387.428a15.084,15.084,0,0,1-3.33-.4c-3.1-.7-8.21-3.812-11.937-6.081-1.417-.862-2.641-1.607-3.449-2.035l.987-1.864c.863.457,2.113,1.217,3.559,2.1,3.6,2.193,8.54,5.2,11.308,5.826,1.937.439,5.489.843,7.511-1.4,1.792-1.99,1.844-7.04.091-8.716a9.974,9.974,0,0,0-4.534-1.929l-.07-.018c-12.864-3.209-24.786-10.409-31.891-19.26l1.645-1.321c6.826,8.5,18.324,15.433,30.757,18.534l.07.018c1.849.461,3.945.983,5.481,2.451,2.728,2.607,2.346,9.069.02,11.652A8.06,8.06,0,0,1,413.866,387.428Z" transform="translate(-382.11 -352.327)"/></g><g transform="translate(89.562 73)"><path class="b" d="M407.9,440.426a16.522,16.522,0,0,1-7.661-2.05,42.79,42.79,0,0,1-8.2-6.181l1.4-1.576a41.176,41.176,0,0,0,7.781,5.894,13.046,13.046,0,0,0,8.948,1.549,6.016,6.016,0,0,0,3.345-1.92,5.565,5.565,0,0,0-.464-6.715l1.569-1.41c2.313,2.575,2.563,6.9.546,9.437a8.085,8.085,0,0,1-4.513,2.661A12.026,12.026,0,0,1,407.9,440.426Z" transform="translate(-392.048 -428.017)"/></g><g transform="translate(88.091 84.606)"><path class="b" d="M397.554,462.8c-2.326,0-5.32-.782-8.993-3.234l1.171-1.754c5.126,3.42,8.547,3.179,10.513,2.373a6.415,6.415,0,0,0,3.827-4.659l2.065.429a8.521,8.521,0,0,1-5.093,6.181A9.14,9.14,0,0,1,397.554,462.8Z" transform="translate(-388.561 -455.529)"/></g><g transform="translate(49.731 18.392)"><path class="b" d="M303.967,305.739q-.2,0-.4-.005c-.724-.017-1.442-.083-2.136-.146a15.5,15.5,0,0,0-3.516-.065l-.287-2.089a17.38,17.38,0,0,1,4,.054c.689.064,1.341.123,1.993.139,3.344.078,6.576-1,10.155-2.311l.335-.123c3.347-1.227,6.809-2.5,10.482-2.617,4.412-.134,8.413,1.637,10.445,4.65l-1.749,1.179c-1.947-2.89-5.736-3.827-8.626-3.721-3.335.11-6.634,1.319-9.825,2.488l-.336.123C310.849,304.63,307.525,305.738,303.967,305.739Z" transform="translate(-297.628 -298.567)"/></g><path class="b" d="M210.391,311.7a6.877,6.877,0,0,1-2.754-.743c-9.484-4.142-18.87-8.814-27.9-13.885l1.033-1.839c8.966,5.037,18.289,9.677,27.709,13.791a7.133,7.133,0,0,0,1.5.529l5.263-8.48c5.329-8.585,10.839-17.464,14.79-26.916a2.014,2.014,0,0,0,.232-.884c-.063-.26-.574-.581-.849-.754a129.705,129.705,0,0,0-14.3-8.134c-1.431-.661-10.618-5.629-13.651-7.667l1.177-1.751c2.968,1.995,11.957,6.856,13.358,7.5a131.381,131.381,0,0,1,14.542,8.263,2.933,2.933,0,0,1,1.441,4.237c-4.016,9.608-9.572,18.559-14.944,27.215l-5.884,9.479-.548.03Q210.5,311.7,210.391,311.7Z" transform="translate(-179.74 -254.968)"/><g transform="translate(40.472 61.358)"><path class="b" d="M282.1,415.8a7.123,7.123,0,0,1-4.793-1.84,5.121,5.121,0,0,1-1.628-3.954,5.277,5.277,0,0,1,1.148-2.788c.078-.115.154-.228.227-.34.441-.679.916-1.344,1.412-1.978h0a13.369,13.369,0,0,1,3.826-3.5,6.873,6.873,0,0,1,5.476-.686,4.963,4.963,0,0,1,3.449,4.583,7.021,7.021,0,0,1-.458,2.148,18.064,18.064,0,0,1-2.22,4.672,8.742,8.742,0,0,1-4.319,3.355A6.882,6.882,0,0,1,282.1,415.8Zm-1.972-9.6c-.459.586-.9,1.2-1.3,1.827-.079.121-.162.245-.247.37a3.659,3.659,0,0,0-.788,1.655,3.022,3.022,0,0,0,.946,2.354,5.052,5.052,0,0,0,4.836,1.056,6.663,6.663,0,0,0,3.247-2.567,16.1,16.1,0,0,0,1.945-4.133,5.175,5.175,0,0,0,.347-1.5,2.854,2.854,0,0,0-2.008-2.548,4.775,4.775,0,0,0-3.779.526,11,11,0,0,0-3.194,2.962Z" transform="translate(-275.68 -400.419)"/></g><g transform="translate(50.594 65.37)"><path class="b" d="M305.58,428.136a6.574,6.574,0,0,1-2.172-.373,5.692,5.692,0,0,1-2.434-1.606,5.273,5.273,0,0,1-1.251-2.571,10.757,10.757,0,0,1,1.625-6.6,19.366,19.366,0,0,1,2.8-3.324c1.6-1.609,3.352-3.215,5.69-3.64a6.611,6.611,0,0,1,7.5,5.592c.391,3.57-2.234,6.574-4.243,8.523-1.806,1.752-3.83,3.437-6.4,3.9h0A6.247,6.247,0,0,1,305.58,428.136Zm5.278-16.1a3.586,3.586,0,0,0-.647.058c-1.736.315-3.209,1.68-4.57,3.051a17.289,17.289,0,0,0-2.5,2.952,8.585,8.585,0,0,0-1.32,5.257,3.256,3.256,0,0,0,.747,1.42,3.587,3.587,0,0,0,1.538,1,4.424,4.424,0,0,0,2.211.189c2.01-.364,3.736-1.821,5.3-3.34,1.691-1.64,3.905-4.128,3.614-6.779a4.262,4.262,0,0,0-1.754-2.888A4.43,4.43,0,0,0,310.858,412.038Z" transform="translate(-299.674 -409.93)"/></g><g transform="translate(60.293 68.976)"><path class="b" d="M328.634,439.958a6,6,0,0,1-5.343-2.907c-1.163-2.155-.7-4.915,1.371-8.2a30.845,30.845,0,0,1,4.428-5.63,20.828,20.828,0,0,1,2.786-2.313l.33-.229a12.887,12.887,0,0,1,2.559-1.492,8.711,8.711,0,0,1,4.661-.608h0a5.861,5.861,0,0,1,4.98,4.928,7.766,7.766,0,0,1-1.128,4.3,28.471,28.471,0,0,1-8.078,9.493,12.194,12.194,0,0,1-5.819,2.624A7.1,7.1,0,0,1,328.634,439.958Zm9.578-19.373a7.19,7.19,0,0,0-2.66.556,11.08,11.08,0,0,0-2.143,1.267l-.338.234a18.763,18.763,0,0,0-2.5,2.08,28.794,28.794,0,0,0-4.123,5.251c-1.636,2.6-2.073,4.64-1.3,6.076a4.06,4.06,0,0,0,4.011,1.771,9.873,9.873,0,0,0,4.776-2.214,26.339,26.339,0,0,0,7.475-8.785,5.923,5.923,0,0,0,.9-3.115,3.782,3.782,0,0,0-3.231-3.05h0A5.186,5.186,0,0,0,338.212,420.585Z" transform="translate(-322.666 -418.477)"/></g><g transform="translate(68.345 76.636)"><path class="b" d="M346.5,455.838h0a5.8,5.8,0,0,1-3.509-1.56c-1.73-1.854-1.481-4.915-.24-6.8l1.762,1.158c-.78,1.185-.958,3.158.019,4.205a3.848,3.848,0,0,0,1.966.889h0a11.556,11.556,0,0,0,7.689-2.477l.087-.073a10.749,10.749,0,0,0,3.761-6.846,5.753,5.753,0,0,0-.635-3.8,4.14,4.14,0,0,0-3.853-1.744l-.316-2.086a6.162,6.162,0,0,1,5.933,2.673,7.662,7.662,0,0,1,.964,5.221,12.882,12.882,0,0,1-4.506,8.2l-.072.06A13.6,13.6,0,0,1,346.5,455.838Z" transform="translate(-341.753 -436.637)"/></g><g transform="translate(32.028 51.735)"><path class="b" d="M267.432,394.135c-2.1-.722-2.775-2.194-3.493-3.752l-.217-.467c-.374-.8-.681-1.613-.979-2.4a22.8,22.8,0,0,0-1.252-2.919,10.991,10.991,0,0,0-5.829-5l.718-1.983a13.129,13.129,0,0,1,6.962,5.975,24.813,24.813,0,0,1,1.375,3.187c.3.787.576,1.53.914,2.25l.224.481c.707,1.533,1.069,2.229,2.264,2.64Z" transform="translate(-255.662 -377.607)"/></g><g transform="translate(79.258 90.462)"><path class="b" d="M377.741,476.911a15.62,15.62,0,0,1-10.119-3.768L369,471.549a13.55,13.55,0,0,0,9.061,3.248,5.549,5.549,0,0,0,2.552-.547,6.5,6.5,0,0,0,1.548-1.309,28.608,28.608,0,0,0,2.838-3.53l1.744,1.186a30.693,30.693,0,0,1-3.048,3.792,8.51,8.51,0,0,1-2.073,1.714,7.531,7.531,0,0,1-3.508.8Q377.929,476.911,377.741,476.911Z" transform="translate(-367.622 -469.411)"/></g></g></g></svg>