<svg xmlns="http://www.w3.org/2000/svg" width="100.868" height="112.157" viewBox="0 0 100.868 112.157"><defs><style>.a{fill:#fff;}.b{fill:#220c2c;}</style></defs><g transform="translate(0)"><g transform="translate(20.396 75.402)"><path class="a" d="M979.23,1056.078l-8.245-34.646H931.5l-8.245,34.646-2.052-.489,8.63-36.267h42.816l8.63,36.267Z" transform="translate(-921.206 -1019.323)"/></g><g transform="translate(0)"><rect class="a" width="98.758" height="76.174" transform="translate(1.054 1.055)"/><path class="b" d="M973.726,918.864H872.858V840.581H973.726Zm-98.758-2.109h96.649V842.69H874.967Z" transform="translate(-872.858 -840.581)"/></g><g transform="translate(10.999 11.968)"><path class="b" d="M935.268,895.207H898.93V868.952h36.338ZM901.039,893.1h32.12V871.061h-32.12Z" transform="translate(-898.93 -868.952)"/></g><g transform="translate(26.898 18.889)"><path class="b" d="M938.206,896.561v-8.453c-.506.237-1.13.506-1.586.692v-2.16c.726-.371,1.6-.827,2.413-1.282H940.6v11.2Z" transform="translate(-936.62 -885.358)"/></g><g transform="translate(52.702 11.968)"><path class="b" d="M1034.126,895.207H997.788V868.952h36.338ZM999.9,893.1h32.12V871.061H999.9Z" transform="translate(-997.788 -868.952)"/></g><g transform="translate(67.091 18.687)"><path class="b" d="M1039.692,896.283h-7.525v-1.771a40.668,40.668,0,0,0,3.813-4.522,3.86,3.86,0,0,0,.81-1.974,1.14,1.14,0,0,0-1.232-1.147c-.793,0-1.282.624-1.282,1.586l-2.379-.388a3.549,3.549,0,0,1,3.695-3.189c1.856,0,3.628,1.114,3.628,3.1a5.533,5.533,0,0,1-1.147,3.121,33.1,33.1,0,0,1-2.7,3.172h4.319Z" transform="translate(-1031.897 -884.878)"/></g><g transform="translate(10.999 41.9)"><path class="b" d="M935.268,966.161H898.93V939.906h36.338Zm-34.229-2.109h32.12V942.015h-32.12Z" transform="translate(-898.93 -939.906)"/></g><g transform="translate(25.118 48.618)"><path class="b" d="M934.9,960.573a5.426,5.426,0,0,0,1.316-.135,1.366,1.366,0,0,0,1.164-1.333,1.274,1.274,0,0,0-1.417-1.249,1.313,1.313,0,0,0-1.35,1.131l-2.024-.878a3.4,3.4,0,0,1,3.391-2.277c1.973,0,3.8,1.147,3.8,3a2.837,2.837,0,0,1-1.383,2.4A2.929,2.929,0,0,1,940.279,964c0,2.177-1.839,3.442-4.049,3.442a4.075,4.075,0,0,1-3.83-2.379l2.008-.928a1.919,1.919,0,0,0,1.839,1.282,1.449,1.449,0,0,0,1.6-1.4c0-1.029-.861-1.569-2.059-1.569a4.758,4.758,0,0,0-.894.084Z" transform="translate(-932.4 -955.832)"/></g><g transform="translate(52.702 41.9)"><path class="b" d="M1034.126,966.161H997.788V939.906h36.338ZM999.9,964.051h32.12V942.015H999.9Z" transform="translate(-997.788 -939.906)"/></g><g transform="translate(66.576 48.821)"><path class="b" d="M1035.419,967.515v-2.75h-4.741v-2.008c1.417-1.839,3.239-4.37,4.707-6.444h2.4v6.478h1.569v1.974h-1.569v2.75Zm0-4.724V959.4c-.658,1-1.687,2.7-2.21,3.391Z" transform="translate(-1030.678 -956.313)"/></g></g></svg>