<svg xmlns="http://www.w3.org/2000/svg" width="106.889" height="106.889" viewBox="0 0 106.889 106.889"><defs><style>.a{fill:#fff;}.b{fill:#220c2c;}</style></defs><g transform="translate(0 -8.196)"><g transform="translate(0 8.196)"><g transform="translate(43.67 43.67)"><rect class="a" width="7.731" height="29.895" rx="3.865" transform="translate(0.17 5.637) rotate(-45)"/><path class="b" d="M990.669,363.444a3.18,3.18,0,0,1-2.256-.933l-18.119-18.119a3.19,3.19,0,0,1,0-4.512l2.446-2.446a3.19,3.19,0,0,1,4.512,0l18.119,18.119a3.2,3.2,0,0,1,0,4.512h0l-2.446,2.446A3.179,3.179,0,0,1,990.669,363.444ZM975,338.609a1.071,1.071,0,0,0-.764.317l-2.447,2.446a1.082,1.082,0,0,0,0,1.529L989.9,361.02a1.083,1.083,0,0,0,1.529,0l2.446-2.446a1.083,1.083,0,0,0,0-1.529l-18.119-18.119A1.072,1.072,0,0,0,975,338.609Z" transform="translate(-969.36 -336.5)"/></g><g transform="translate(0 0)"><ellipse class="a" cx="28.868" cy="28.868" rx="28.868" ry="28.868" transform="translate(1.054 1.055)"/><path class="b" d="M895.762,292.824a29.922,29.922,0,1,1,21.158-8.764A29.726,29.726,0,0,1,895.762,292.824Zm0-57.735a27.813,27.813,0,1,0,19.667,8.146h0A27.632,27.632,0,0,0,895.762,235.089Z" transform="translate(-865.84 -232.98)"/></g><g transform="translate(7.758 7.768)"><ellipse class="a" cx="21.11" cy="21.11" rx="21.11" ry="21.11" transform="translate(1.055 1.044)"/><path class="b" d="M906.395,295.713a22.164,22.164,0,1,1,15.672-37.837h0a22.165,22.165,0,0,1-15.672,37.837Zm0-42.21a20.039,20.039,0,1,0,14.181,5.865h0A19.994,19.994,0,0,0,906.395,253.5Z" transform="translate(-884.23 -251.395)"/></g><g transform="translate(53.2 53.2)"><rect class="a" width="15.6" height="60.327" rx="7.8" transform="translate(0 11.031) rotate(-45)"/><path class="b" d="M1035.61,413.052a5.349,5.349,0,0,1-3.793-1.569L995.254,374.92a5.364,5.364,0,0,1,0-7.586l4.937-4.937a5.37,5.37,0,0,1,7.586,0l36.564,36.564a5.37,5.37,0,0,1,0,7.586h0l-4.937,4.937A5.349,5.349,0,0,1,1035.61,413.052Zm-31.627-50.115a3.245,3.245,0,0,0-2.3.952l-4.937,4.936a3.256,3.256,0,0,0,0,4.6l36.564,36.564a3.26,3.26,0,0,0,4.6,0l4.936-4.937a3.259,3.259,0,0,0,0-4.6l-36.564-36.563A3.245,3.245,0,0,0,1003.984,362.937Z" transform="translate(-992.953 -360.096)"/></g></g></g></svg>