<svg xmlns="http://www.w3.org/2000/svg" width="96.41" height="128.323" viewBox="0 0 96.41 128.323"><defs><style>.a{fill:#fff;}.b{fill:#220c2c;}</style></defs><g transform="translate(0 0)"><g transform="translate(29.44 95)"><path class="a" d="M0,0H35.756a0,0,0,0,1,0,0V13.662A17.878,17.878,0,0,1,17.878,31.54h0A17.878,17.878,0,0,1,0,13.662V0A0,0,0,0,1,0,0Z" transform="translate(0.891 0.891)"/><path class="b" d="M331.474,1054.476a18.791,18.791,0,0,1-18.769-18.769v-14.553h37.539v14.553A18.791,18.791,0,0,1,331.474,1054.476Zm-16.987-31.54v12.771a16.987,16.987,0,1,0,33.973,0v-12.771Z" transform="translate(-312.705 -1021.153)"/></g><g transform="translate(7.818 27.209)"><path class="a" d="M334.47,875.055c0-6.093-3-7.3-6.694-7.3a4.181,4.181,0,0,0-1.212.184c-.753-21.021-14.81-34.407-32.045-34.407s-31.292,13.386-32.045,34.407a4.178,4.178,0,0,0-1.212-.184c-3.7,0-6.694,1.211-6.694,7.3,0,6.074,7.793,14.7,11.5,14.758,5.357,14.943,16.085,27.275,28.448,27.275s23.091-12.332,28.448-27.275C326.677,889.759,334.47,881.129,334.47,875.055Z" transform="translate(-253.675 -832.636)"/><path class="b" d="M292.909,916.372c-11.6,0-22.981-10.712-29.1-27.343-4.468-.852-11.746-9.506-11.746-15.582,0-7.347,4.329-8.2,7.586-8.2.123,0,.246.005.369.014.558-9.9,4.02-18.4,10.043-24.644a32,32,0,0,1,45.691,0c6.023,6.245,9.485,14.748,10.044,24.644.123-.009.246-.014.369-.014,3.256,0,7.586.85,7.586,8.2,0,6.076-7.277,14.73-11.746,15.582C315.89,905.659,304.511,916.372,292.909,916.372Zm-33.258-49.338c-3.483,0-5.8,1.091-5.8,6.414,0,5.6,7.462,13.82,10.626,13.867l.618.009.208.582c5.811,16.21,16.648,26.684,27.608,26.684s21.8-10.474,27.608-26.684l.209-.582.618-.009c3.164-.047,10.626-8.269,10.626-13.867,0-5.323-2.32-6.414-5.8-6.414a3.3,3.3,0,0,0-.954.146l-1.107.334-.041-1.156c-.354-9.89-3.671-18.361-9.593-24.5a30.216,30.216,0,0,0-43.124,0c-5.921,6.138-9.238,14.61-9.593,24.5l-.041,1.156-1.107-.334A3.3,3.3,0,0,0,259.652,867.034Z" transform="translate(-252.066 -831.028)"/></g><g transform="translate(28.493 64.431)"><path class="a" d="M311.878,940.106s4.576-4.915,9.661,0" transform="translate(-311.225 -937.029)"/><path class="b" d="M319.742,939.137a5.924,5.924,0,0,0-4.27-1.933,6.52,6.52,0,0,0-4.119,1.9l-1.305-1.215a8.324,8.324,0,0,1,5.377-2.466,7.613,7.613,0,0,1,5.556,2.433Z" transform="translate(-310.048 -935.419)"/></g><g transform="translate(57.758 64.431)"><path class="a" d="M403.524,940.106s-4.576-4.915-9.661,0" transform="translate(-393.243 -937.03)"/><path class="b" d="M393.364,939.138l-1.239-1.282a7.616,7.616,0,0,1,5.556-2.433,8.324,8.324,0,0,1,5.377,2.466l-1.3,1.216a6.6,6.6,0,0,0-4.136-1.9A5.9,5.9,0,0,0,393.364,939.138Z" transform="translate(-392.125 -935.421)"/></g><g transform="translate(39.15 86.594)"><path class="a" d="M341.083,1001.652a18.429,18.429,0,0,0,18.126-2.009" transform="translate(-340.675 -998.907)"/><path class="b" d="M347.539,1002.732a17.765,17.765,0,0,1-7.6-1.616l.815-1.586a17.714,17.714,0,0,0,17.217-1.952l1,1.473A20.034,20.034,0,0,1,347.539,1002.732Z" transform="translate(-339.938 -997.578)"/></g><g transform="translate(0 0)"><path class="a" d="M236.906,812.638a14.068,14.068,0,0,1-3.9-5.255,5.322,5.322,0,0,1-.358-2.232c.178-2.585,2.465-4.565,3.034-7.093.972-4.312-3.23-8.958-1.26-12.915,1.741-3.5,6.884-3.525,9.631-6.3,2.2-2.222,2.4-5.679,3.654-8.541,2.194-5,7.771-7.969,13.227-8.088,3.215-.07,6.476.706,9.62.033,2.787-.6,5.2-2.272,7.786-3.473,4.695-2.182,11.058-2.43,14.31,1.6.552.684.988,1.462,1.6,2.091,1.463,1.5,3.7,1.926,5.787,2.029s4.24-.038,6.227.624,3.816,2.421,3.72,4.513a7.034,7.034,0,0,0-.082,1.777c.313,1.472,2.174,1.872,3.659,2.117a15.961,15.961,0,0,1,7.369,3.027,9.814,9.814,0,0,1,3.83,6.821c.239,3.472-1.728,7.122-.325,10.307a22.134,22.134,0,0,0,1.376,2.3c2.285,3.848,1.719,8.917-.512,12.8a24.689,24.689,0,0,1-6.875,7.2c-1.124.85-2.492,1.009-3.653,1.85a9.486,9.486,0,0,0-2.826,3.421c-1.175,2.328-1.609,4.944-2.268,7.467-.327,1.252-1.12,2.77-2.4,2.586-1.464-.211-1.586-2.257-1.381-3.722a47.02,47.02,0,0,0-.109-13.711,16.414,16.414,0,0,1-.312-5.129,4.412,4.412,0,0,0-.137-2c-1.2-3.9-5.386-4.4-7.7-7.265-1.575-1.952-1.936-4.958-4.141-6.152-1.773-.96-3.984-.281-5.752.688s-3.462,2.241-5.462,2.495c-3.043.386-5.848-1.673-8.887-2.082a8.7,8.7,0,0,0-9.318,6.489,8.165,8.165,0,0,1-.482,1.81c-.788,1.623-2.848,2.047-4.4,2.974A6.739,6.739,0,0,0,256,811.522c.031,1.242.592,2.635.181,3.859-.124.37-.384.685-.522,1.052a24.753,24.753,0,0,0-.826,4.3l-1.651,9.244a3.032,3.032,0,0,1-.753,1.8,2.106,2.106,0,0,1-2.87-.5,6.752,6.752,0,0,1-1.117-3.021,42.458,42.458,0,0,0-2.374-7.662c-.83-1.99-1.731-4.636-3.8-5.654-1.511-.742-3.193-.692-4.608-1.716C237.4,813.047,237.155,812.85,236.906,812.638Z" transform="translate(-231.747 -756.325)"/><path class="b" d="M249.763,831.444c-.07,0-.14,0-.21-.008a3.364,3.364,0,0,1-2.293-1.2A7.135,7.135,0,0,1,245.99,827l-.034-.165a41.624,41.624,0,0,0-2.324-7.5c-.081-.194-.163-.395-.246-.6-.731-1.794-1.56-3.827-3.128-4.6a9.323,9.323,0,0,0-1.8-.594,8.166,8.166,0,0,1-2.935-1.2c-.262-.19-.532-.4-.8-.631a14.886,14.886,0,0,1-4.156-5.622,6.2,6.2,0,0,1-.412-2.605,9.786,9.786,0,0,1,1.682-4.281,10.635,10.635,0,0,0,1.372-2.946c.394-1.748-.2-3.617-.819-5.6-.784-2.487-1.595-5.06-.37-7.52,1.133-2.276,3.418-3.231,5.628-4.156a12.491,12.491,0,0,0,4.167-2.375c1.285-1.3,1.821-3.138,2.389-5.083a25.934,25.934,0,0,1,1.083-3.189c2.205-5.022,7.841-8.486,14.024-8.621,1.23-.03,2.464.066,3.657.155a15.116,15.116,0,0,0,11-2.3c.774-.411,1.574-.837,2.388-1.216,4.864-2.26,11.752-2.647,15.379,1.846.235.291.446.591.65.881a9.261,9.261,0,0,0,.9,1.147c1.054,1.081,2.7,1.64,5.192,1.761.477.023.957.034,1.437.044a16.821,16.821,0,0,1,5.028.625c2.171.723,4.451,2.721,4.329,5.4-.011.237-.04.459-.068.674a2.8,2.8,0,0,0-.033.877c.182.856,1.517,1.19,2.932,1.423a16.7,16.7,0,0,1,7.778,3.208,10.625,10.625,0,0,1,4.166,7.458,17.994,17.994,0,0,1-.424,4.409c-.365,2.022-.71,3.932.025,5.6a9.773,9.773,0,0,0,.81,1.387c.177.269.353.538.517.814,2.274,3.83,2.076,9.206-.506,13.7a25.681,25.681,0,0,1-7.11,7.469,8.385,8.385,0,0,1-2.047,1.056,7.346,7.346,0,0,0-1.62.805,8.577,8.577,0,0,0-2.554,3.1,24.751,24.751,0,0,0-1.76,5.494c-.143.6-.286,1.2-.442,1.8-.579,2.217-1.878,3.46-3.39,3.243-1.692-.243-2.511-2.054-2.137-4.728a46.016,46.016,0,0,0-.107-13.451l-.073-.463a15.576,15.576,0,0,1-.241-4.927,3.511,3.511,0,0,0-.106-1.615c-.621-2.014-2.158-2.975-3.939-4.087a13.6,13.6,0,0,1-3.6-2.88,13.179,13.179,0,0,1-1.577-2.763c-.619-1.324-1.2-2.574-2.295-3.165-1.518-.822-3.5-.081-4.9.686-.388.212-.772.44-1.156.667a12.176,12.176,0,0,1-4.622,1.93,12.049,12.049,0,0,1-5.683-1.088,16.641,16.641,0,0,0-3.435-1,7.851,7.851,0,0,0-8.329,5.8c-.032.142-.06.285-.088.429a4.942,4.942,0,0,1-3.841,4.243,14.253,14.253,0,0,0-1.361.682,5.876,5.876,0,0,0-2.774,5.045,9.1,9.1,0,0,0,.15,1.214,6.018,6.018,0,0,1-.015,2.952,3.92,3.92,0,0,1-.342.712,2.892,2.892,0,0,0-.191.37,13.4,13.4,0,0,0-.583,2.813c-.06.441-.122.9-.2,1.332l-1.651,9.244a3.844,3.844,0,0,1-1.036,2.3A2.442,2.442,0,0,1,249.763,831.444Zm9.983-69.951c-.134,0-.267,0-.4,0-5.5.12-10.5,3.156-12.43,7.555a24.316,24.316,0,0,0-1,2.972c-.6,2.073-1.23,4.217-2.833,5.838a13.973,13.973,0,0,1-4.747,2.766c-2,.835-3.883,1.625-4.721,3.306-.9,1.815-.234,3.94.475,6.189.667,2.118,1.357,4.307.858,6.524a12.109,12.109,0,0,1-1.577,3.461,8.352,8.352,0,0,0-1.438,3.5,4.432,4.432,0,0,0,.3,1.858,13.214,13.214,0,0,0,3.642,4.889h0c.232.2.464.38.689.543a6.682,6.682,0,0,0,2.335.918,10.839,10.839,0,0,1,2.144.72c2.177,1.069,3.184,3.539,3.993,5.524q.122.3.241.587a43.409,43.409,0,0,1,2.424,7.823l.035.168a5.657,5.657,0,0,0,.9,2.467,1.612,1.612,0,0,0,1.052.554.69.69,0,0,0,.536-.15,2.406,2.406,0,0,0,.471-1.29l1.651-9.244c.071-.4.128-.817.188-1.259a14.661,14.661,0,0,1,.682-3.2,4.271,4.271,0,0,1,.312-.626,2.5,2.5,0,0,0,.2-.394,4.584,4.584,0,0,0-.053-2.092,10.61,10.61,0,0,1-.174-1.462,7.608,7.608,0,0,1,3.641-6.62,15.742,15.742,0,0,1,1.533-.773,3.29,3.29,0,0,0,2.835-2.965c.031-.159.062-.318.1-.476a9.589,9.589,0,0,1,10.307-7.178,18.229,18.229,0,0,1,3.812,1.089,10.561,10.561,0,0,0,4.844.992,10.691,10.691,0,0,0,3.938-1.695c.4-.238.8-.475,1.208-.7,2.562-1.4,4.845-1.643,6.6-.69,1.608.871,2.347,2.45,3.061,3.978a11.681,11.681,0,0,0,1.349,2.4,12.075,12.075,0,0,0,3.16,2.488c1.908,1.192,3.881,2.425,4.7,5.074a5.328,5.328,0,0,1,.168,2.388,14.012,14.012,0,0,0,.236,4.4l.073.468a47.783,47.783,0,0,1,.111,13.971c-.145,1.035-.1,2.612.625,2.716.572.077,1.145-.908,1.412-1.929.152-.583.292-1.171.433-1.759a26.438,26.438,0,0,1,1.9-5.884,10.371,10.371,0,0,1,3.1-3.742,8.815,8.815,0,0,1,2-1.017,6.921,6.921,0,0,0,1.635-.823,24.065,24.065,0,0,0,6.64-6.935c2.266-3.941,2.47-8.612.518-11.9-.15-.252-.312-.5-.474-.745a11.24,11.24,0,0,1-.952-1.648c-.954-2.167-.544-4.438-.148-6.635a16.421,16.421,0,0,0,.4-3.971,8.964,8.964,0,0,0-3.5-6.183,14.953,14.953,0,0,0-6.96-2.846c-1.274-.21-3.926-.647-4.386-2.811a4.257,4.257,0,0,1,.009-1.48c.024-.186.047-.362.055-.523.077-1.675-1.507-3.092-3.111-3.626a15.252,15.252,0,0,0-4.5-.534c-.5-.011-.992-.022-1.485-.046-1.866-.091-4.558-.428-6.381-2.3a10.672,10.672,0,0,1-1.079-1.367c-.2-.278-.38-.541-.579-.786-2.121-2.628-7.169-4.171-13.24-1.349-.771.358-1.55.772-2.3,1.173a16.787,16.787,0,0,1-11.975,2.5C261.813,761.572,260.765,761.494,259.746,761.494Z" transform="translate(-230.139 -754.719)"/></g><g transform="translate(32.118 65.323)"><ellipse class="b" cx="1.897" cy="2.676" rx="1.897" ry="2.676"/></g><g transform="translate(61.311 65.323)"><ellipse class="b" cx="1.897" cy="2.676" rx="1.897" ry="2.676"/></g></g></svg>